<svg xmlns="http://www.w3.org/2000/svg" viewBox="0 0 114.4 50.48"><defs><style>.cls-1{fill:#296caf;}.cls-2{fill:#73a12d;}</style></defs><g id="Capa_2" data-name="Capa 2"><g id="Capa_1-2" data-name="Capa 1"><path class="cls-1" d="M3.11,45.32c1.73,0,3.09.33,3.09,1.29,0,.47-.4.87-1.25,1.09,1.25.11,2.14.46,2.14,1.27s-1.21,1.42-3.28,1.42H0V45.32Zm-.64,2c1,0,1.52-.15,1.52-.57s-.52-.52-1.52-.52H2.29V47.3ZM3,49.5c1.08,0,1.67-.17,1.67-.57S4.09,48.3,3,48.3H2.29v1.2Z"/><polygon class="cls-1" points="13.83 46.33 10.38 46.33 10.38 47.34 13.68 47.34 13.68 48.35 10.38 48.35 10.38 49.37 13.83 49.37 13.83 50.39 8.09 50.39 8.09 45.32 13.83 45.32 13.83 46.33"/><polygon class="cls-1" points="14.51 45.32 21.55 45.32 21.55 46.33 19.17 46.33 19.17 50.39 16.89 50.39 16.89 46.33 14.51 46.33 14.51 45.32"/><path class="cls-1" d="M30.93,50.39H28.47l-.74-1H23.92l-.74,1H20.72l4.05-5.07h2.11Zm-5.09-3.5h0l-1.12,1.47H27Z"/><path class="cls-1" d="M41.19,45.71l-.93.92a6.91,6.91,0,0,0-2-.35c-.78,0-1.19.18-1.19.45s.94.49,2.08.73,2.35.72,2.35,1.39c0,1.21-1.82,1.63-3.78,1.63a9.54,9.54,0,0,1-3.76-.67l1.14-1a7.49,7.49,0,0,0,2.45.57c.5,0,1.45,0,1.45-.5s-1.07-.53-2.26-.83-1.91-.78-1.91-1.3c0-1,1.65-1.55,3.27-1.55a9.78,9.78,0,0,1,3.11.48"/><path class="cls-1" d="M51.68,50.39H49.23l-.74-1H44.67l-.74,1H41.48l4-5.07h2.11Zm-5.09-3.5h0l-1.12,1.47h2.26Z"/><polygon class="cls-1" points="54.35 50.39 52.07 50.39 52.07 45.32 54.35 45.32 58.33 48.47 58.36 48.47 58.36 45.32 60.64 45.32 60.64 50.39 58.36 50.39 54.37 47.24 54.35 47.24 54.35 50.39"/><polygon class="cls-1" points="73.22 47.38 73.16 47.38 71.11 50.36 69.75 50.36 67.7 47.38 67.64 47.38 67.16 50.39 64.88 50.39 65.78 45.32 68.21 45.32 70.43 48.24 72.65 45.32 75.08 45.32 75.98 50.39 73.7 50.39 73.22 47.38"/><rect class="cls-1" x="76.9" y="45.32" width="2.28" height="5.07"/><path class="cls-1" d="M89.7,48.65c-.54,1.28-2.66,1.83-4.63,1.83-2.69,0-4.88-1.17-4.88-2.62s2.07-2.63,4.88-2.63a7.36,7.36,0,0,1,3.87.86l-1.5.83a3.45,3.45,0,0,0-2.23-.65c-1.41,0-2.55.71-2.55,1.59s1.14,1.56,2.55,1.56c1.09,0,2.17-.36,2.17-1H85.07v-.89H89.7Z"/><path class="cls-1" d="M98.41,48.59c0,1.25-1.36,1.89-3.91,1.89s-3.91-.64-3.91-1.89V45.32h2.28v2.93c0,.85.51,1.09,1.63,1.09s1.63-.24,1.63-1.09V45.32h2.28Z"/><polygon class="cls-1" points="105.48 46.33 102.03 46.33 102.03 47.34 105.33 47.34 105.33 48.35 102.03 48.35 102.03 49.37 105.48 49.37 105.48 50.39 99.74 50.39 99.74 45.32 105.48 45.32 105.48 46.33"/><polygon class="cls-1" points="109.07 49.37 112.52 49.37 112.52 50.39 106.79 50.39 106.79 45.32 109.07 45.32 109.07 49.37"/><path class="cls-1" d="M111,0a3.37,3.37,0,1,1-3.35,3.38A3.38,3.38,0,0,1,111,0m0,5.83a2.47,2.47,0,1,0-2.44-2.45A2.46,2.46,0,0,0,111,5.83m.08-4a.91.91,0,0,1,1,.92.9.9,0,0,1-.63.9l1.09,1.29h-.93l-.94-1.23V4.91H110V1.8Zm-.3,1.38c.25,0,.55,0,.55-.4s-.3-.42-.55-.42h-.09v.82Z"/><rect class="cls-2" y="42.32" width="112.53" height="1.36"/><path class="cls-2" d="M3.73,2.49H19c.86-.05,6.55-.3,10.09,3.88a10.71,10.71,0,0,1,2.06,3.89A11.48,11.48,0,0,1,31.32,13a11.94,11.94,0,0,1-.23,1.65,7.86,7.86,0,0,1-2.47,5,6.36,6.36,0,0,1-1.39.93l-.07.76a8,8,0,0,1,5.43,6.26,11.76,11.76,0,0,1,0,4.83,11.9,11.9,0,0,1-5.42,6.92,12.52,12.52,0,0,1-4,1.38H2c-2-.08-2-2.87-2-2.87V5.05A2.66,2.66,0,0,1,.5,3.42a3,3,0,0,1,3.23-.93m9.32,9.73V17H16s2.19-.15,2.19-1.43V14.11s-.3-1.89-1.66-1.89Zm0,13.73v5.28h4.3s2.19-.53,2.19-2.11V27.69A2.8,2.8,0,0,0,17,25.57H13.05Z"/><path class="cls-1" d="M57.48,13.65s1.69-.4,2.91-5.83a.43.43,0,0,1,0-.19.59.59,0,0,1,.05-.17A1.19,1.19,0,0,0,60.54,7a6.75,6.75,0,0,0,.09-.87A1.92,1.92,0,0,0,60.39,5a4,4,0,0,0-1-1.09c-1.06-.64-3.2-1.47-7.56-2.22a20.75,20.75,0,0,0-5.89,0,15.12,15.12,0,0,0-7.17,2.75A16.42,16.42,0,0,0,33,12.22a20,20,0,0,0-.25,2.89A19.49,19.49,0,0,0,33,18.48a9.1,9.1,0,0,0,1.74,3.77c1.53,1.92,4.4,3.88,9.73,4.08,0,0,5.69.6,2.94,4,0,0-4.54,1.23-11.09-2.61-.11-.07-.39,0-.68.17a1.5,1.5,0,0,0-.53.49,21.78,21.78,0,0,0-1.24,2.42,24.62,24.62,0,0,0-1.77,6.57.66.66,0,0,0,.08.63,1.07,1.07,0,0,0,.37.28,26.54,26.54,0,0,0,3.22,1.3,18.08,18.08,0,0,0,6.38,1.14h8.65S60.9,39.3,62.31,28.94a9.34,9.34,0,0,0,.15-1.63,8.38,8.38,0,0,0,0-1.59,9.15,9.15,0,0,0-1.28-4.38c-1.38-2.22-4.4-4.62-10.94-5.37,0,0-5.93-.76-2.31-3.75a12.44,12.44,0,0,1,6.94,1.33s1.88.67,2.61.1"/><path class="cls-2" d="M61.41,39.81,67.24,2.44H80.72l6,19.76L92.69,2.44l12.53.33,7.31,38H100s-1.31-.24-1.31-1.35-1.51-18.6-1.51-18.6l-6.88,20h-7.2L76.65,20.8,74.58,39.2s-.1,1.55-1.1,1.55H62.33s-1.06-.08-.92-.94"/></g></g></svg>